/* XPM */
static char *result[] = {
/* columns rows colors chars-per-pixel */
"64 64 44 1 ",
"  c #112039",
". c #152644",
"X c #172949",
"o c #1A2C4D",
"O c #1B2E51",
"+ c #1D3156",
"@ c #1E335A",
"# c #21355D",
"$ c #213760",
"% c #233964",
"& c #263D6B",
"* c #293E6D",
"= c #273F70",
"- c #293F70",
"; c #2A406F",
": c #274070",
"> c #2B4274",
", c #2E467B",
"< c #2E487E",
"1 c #31477D",
"2 c #31487E",
"3 c #2F4980",
"4 c #334B84",
"5 c #364E8A",
"6 c #394F8B",
"7 c #37508D",
"8 c #39518E",
"9 c #3C5494",
"0 c #3F5698",
"q c #415595",
"w c #40579A",
"e c #42599D",
"r c #465BA2",
"t c #495EA6",
"y c #4A5FA9",
"u c #4D61AC",
"i c #4F63B1",
"p c #5265B4",
"a c #5567B8",
"s c #5669BA",
"d c #596ABD",
"f c #5C6DC3",
"g c #606EC7",
"h c #6373CE",
/* pixels */
"#@3643455757441&o%48855952,>444&Oo%,531rr8699954%X%3508835853-,-",
",&60979998889853#,eeq9999998773==438r95rt099eiy0-%56899935545546",
"4%6w999977889973%,ww9e0eww99854>3090yw999099wsfy3,09009668859985",
"5%69998988880985;,09000eee97555,<969ww990900qpfp6100000950090r09",
"4&5680ee9988079812e999w9999854531986998999099uft3-609q00999ersp9",
"5*6890ww0080059812ew89999986534,3009999909998809316990009899ryu0",
"4&699ww88900w877,5ue89776686535:,999909q9899989859q58000w999w998",
"5&69er00900998854we88977880e9783>9998909909988985py990909wye9998",
"6&5900090009w0954u98785799sfu9921q99999900909887,rr89990werw9088",
"9>5900090000yy831w887778qqddu9851yqq999999009987>700e90ew9900989",
"9>88990990090e732097897799er98ue1e09999q00099997<9uir99999084699",
"6>899999909w955,7de99999rte99epr&5999w9w99090995>9ifr999q0964699",
"4>909899000885832gfu9999afp999e5$19q9we999tt9997>7re9eqew0988999",
"4=69990rt0855873&ude7889eue9888,O#3999990pgdt995:%99899999999889",
"<&4696553,>>,,=@+;52,2254557772#+#$**->>4ett92*+. #,:,145899863,",
"%@$&=%$@Oo@>:&$@o+++###@+++#%&%,5553,>&#oo%*>-*%#@&;-**$$%%:33:=",
"44>=>>>,&O%9985586777553&+o%28878788984<%@>8558097787574>@@>807e",
"9989ia854%-90998009900092#;efft577799074:@:97798998808884%,70e99",
"9990ti080,>90009e09090ee5;8epi9597779077<@:58980989898997=399999",
"9009995794<90000e00099ee7>909988997579744:<88880999789887:300099",
"800009578,>9e999e00899097>709999999999974:<88888899899786>7r0000",
"800098888,>899990990yr807,700988987790774:<90988899999998>409909",
"7900985883>5888909eusse87,799889999999744:499975800099999,<77789",
"880909875,398899999uppe09>797799979999877>799975899997898,<99999",
"00000098419i96589858er009>>7999877909e987:<90899999997999,298w99",
"0ew009885-wf0689889889879,38909778e900994%%7098890w99999944699w9",
"w00009wtw-qu0ray57eur9899,790087990999995&:70000weew99999<49999w",
"009989wyp4*890pi87eur9999<780099009977775&,57900wwq9psrq0<399999",
"9988888rfy@-8790089e09899,5e00aie97979743:>5990eerw9ggu991199999",
"90r0w08ru6+&3899990eu0799&&909iie8999994<&,0eeerereepsr99,*909e0",
"0auii0888*o$$-458800e5435%o,589978789894,@%79000ee90we998:#59wpr",
"3w614-=-=@+$%&%$$@$&>,>:&$+$%%$$$%&&&&::@+@%&&&&*&&>,:>>%+o#$&>,",
"X.%>33,905580843@.%<5987<454<;:&@+<5<<<4444433:%O@3553453>::3<<%",
"&=38r95ru090eiu0>%57899935555557<&80979989979973%<0e00900068997,",
"3980i09999990dfy4<e90998797799774%70999987889973%<00000ree09955,",
"1989e00909090ifi7<99ee9979000e095%58897988989977:,000000er057553",
"1998998899999uft2:9ww9ee900ersp9<:77709999890899,<0090009e99755<",
"39q99099999089e94:7999w99799rupq4;58999990909788<,9990000099734<",
"10909990869988882,899999999999985;79997789000898,>790000e097744>",
"19899009999978905,899999erpr99974:79ee8909889989,<990090w99e9775",
"1999990999998689<:9968qwwute90897;49e090099ear98<490ww9w90ydy994",
"1yqw9996998885782>qeutty9wq999998>589909999euu88,,00e099w9adu965",
"-qq99899009988884,rsfywe999855997,789899909988475,0ee0q996rrq9yy",
"&6qq9099990989994>ypyw9ww99755997>99990000008uu84,9e00wwetq99epi",
"#1990009960e99rr5%6eeq00e99889994>89990900eu0sa3,&7eutqwusuq89q8",
"O#499909990090093@<0w00e999997984;799009ersdfi94,%6uhd99ere98991",
"+@%&:>3599999864>@%4990ee999773,,:,589890uupdu97<@,rpu998888581$",
"55541>-%%%%>><5<%@@%%>>->,;:<<::;+@;;;;>>,;;>>;%@ +**&*%%$##%&%>",
"6898995<@...*tp934508,,:&%+,998053>&::::%@o+@%>>41:::;&%@Oo%2666",
"66699065:OO%5dft988ir3774&>70e999989ia9374@,5779rttw0985:@&efft5",
"96579055<+%68eye888083775&3999999900ui09af199990wppwqe7<:%5epp95",
"999569554@,8988997989998<%59009099999957if899799eer998785:6q9968",
"999890985#28887898880er0,$409000990009570e598579qerrrw898>6w9999",
"986890995&59579557889907,$>99999890099899739978859etpe8881599988",
"90980rr85:5e8557778696864::9779779909859085899988999987891599799",
"98998e985>6r9898858965887:,99999790999799738897789eee9689,495599",
"779090887>300888888885887:,9900900000000951q974779ur99999,>89999",
"790099985&&69888999989997,<999990e000e09952eq88889we998791199w95",
"900989895&:800009wew9w999,,9999eee00000rq52w9epu580te99991499e95",
"098987775&>58900www9pprq9,,999990990090et6;68epu97eir9909146q999",
"e97989774&>5990rerwqggu99<>99w999988899ese#,5799999we9999,2e0wpu",
"e9998094<;,00e0reeeeist99<*9q990969qe980u4#*2799999rr0799;;w90ps",
"87789894>@%70000ee9qweq99:$6qqe989euiw988:o#%,45899er6455%o17899",
"%&&%%:;:@o+%&%:>,;*>,>>>$Oo#%*>*1qq25:::%++@%$###%$%;:&&%@o#%*%$"
};
