/* XPM */
static char *result[] = {
/* columns rows colors chars-per-pixel */
"64 64 78 1 ",
"  c #327B26",
". c #358425",
"X c #3A8727",
"o c #378229",
"O c #3C862B",
"+ c #3E8A2B",
"@ c #3F8D30",
"# c #41872D",
"$ c #438C2E",
"% c #45922E",
"& c #48932F",
"* c #46982F",
"= c #4B9A2F",
"- c #438732",
"; c #448D31",
": c #498E33",
"> c #469232",
", c #4A9534",
"< c #479832",
"1 c #4C9934",
"2 c #4E9639",
"3 c #4E9939",
"4 c #519636",
"5 c #519C36",
"6 c #519639",
"7 c #539B3A",
"8 c #599E3D",
"9 c #53A136",
"0 c #58A337",
"q c #56A13A",
"w c #5AA33D",
"e c #5DA93D",
"r c #60A73F",
"t c #61AB3E",
"y c #539740",
"u c #569C42",
"i c #5A9E42",
"p c #5F9D4D",
"a c #5B9355",
"s c #57A040",
"d c #5DA342",
"f c #5EA842",
"g c #61A544",
"h c #63AA44",
"j c #68AF47",
"k c #63A449",
"l c #65AA49",
"z c #6AAD4B",
"x c #66B042",
"c c #6AB445",
"v c #6CB24B",
"b c #71B34D",
"n c #74BA4D",
"m c #7ABD4F",
"M c #69A251",
"N c #6EA75B",
"B c #70AE52",
"V c #6DB150",
"C c #74B652",
"Z c #79B757",
"A c #74B853",
"S c #79BC55",
"D c #77B55A",
"F c #7DBD5A",
"G c #78C04F",
"H c #7AC054",
"J c #7DC05B",
"K c #81BE5D",
"L c #84BF63",
"P c #82C657",
"I c #83C45C",
"U c #8BCF5C",
"Y c #86C463",
"T c #8AC563",
"R c #8AC962",
"E c #96D16C",
"W c #9BD670",
"Q c #A5DF78",
/* pixels */
",<,<11<<,d%,1>,>$;>&::;4>;#5&&##$4$#&#&:&:&&&gb5,,&42<1,2,3<,Jq+",
"3<,<31<,d7>,,>,>&>>>;-:0;#&,###$#&4####:&$$&$:K%,>>,6>1<,,+lJ1>3",
"11111><f3>d%&,>,>,,>>;w>>#4#$$##:##&$:#&::$:$:ZO>5>,7<,3%,DA%<1,",
",1<<1wqs<<21&&&>&$:>>e>#84&##&&##&&#&##:#&$&%:S+,,,551<#eId%,511",
"1,<>f1>>1<,w&&,,%$>>0,$>$g#$$$#$###:#:$&:$$&#tc+,&1*2*<AP>$7,11,",
"5*1v><3<2,7:>>,,1,#01$,>$w4$$$#&$&#$$#&$$,&&XS0$5=15$8Jh%<,<1<3,",
"%10231<<<7>>,>>11%05;>>$5$=$$$$#$&#$$:#:$$>#5IX1,1%>cS7+1q19<1<9",
"30<>q111,72:,;5*5ee2>>$&5$$:&$$$##$:#&&$&&,XUE+=,%,Cc#>q3<=13355",
"e3<120<<7>2::,>7c0$,*,$w=&::&$$$##&#&&&:&,$nxFb$%gP8+<,315<1519=",
"1q<3>7<,3,>22;8j%,5,=&&54&:&$$$$&::&&&$,&&&P+$W,lH#>2,11*1353<11",
",u3<<32,2>22>5d>,=54,,5=*=&:&:$&#:#&,$$&=#nw,%dQh%,1,,13*19<<19<",
",wf<31735%3;kh$<,*&w,*e$&&&&&$:&&&&&&>*=#jn$,1oUw%5,,*,3<3111191",
"dw73=1<s,2>dd7<1,1=>0w=&4&:=&%&>4&&4=&=%tG&=>&7,S,>,111,11<3115<",
"q<<72<>7,6wq$711,*,*,n$&&&>&4&&&&=4&5=$tU=*5,5e+7C;,><>113<31<1f",
"<13<1,124a>%115,*,11,0r*,&,&,&&,&4&&=$rm$55,>85,%ld>,1<11>>311jq",
"1<1<552:k6>5=,15,111e,t=,,&,=4,=44===rS$1*55,0,2<%z1%2,<2>1<ql>1",
"3<1>1q<7l<<11*,=53<09=9e%==,1=1=555&5P&&111<57>11>;d71<,,7>8d%1,",
"91111>7l$73<1,,>195011%he===,&15*,5=S0>,15<,,711,1>d1<<11>ul,111",
"1,11,>C7%,5<1<1<55,55<1e501=5=,551%vc+95,1<11q><,1,7>13,>2l>13>3",
"31117j,17,52=<1<0*51==e9%55==,4&9&0G&<152511<3911>sd<13<7h7>2,,<",
"13<7h2,111,65119q*5199x<=15=*511*=P5,5<>e,,11131<7d3,,,us@23<333",
">,,h,<72,3,<855,39=91x9191=9=11,,mt55<1,11*,13<,,j>>3>d3>31y3>11",
"13l21,>7,51,77%<<95<et%50==155=9ct$55,1<,7%1>7,>l3>>2s7>333<u>3>",
"ds>71,d3<21527111<1wv=515551,=xt>5<,,211,55>>12,V>3133>3<7<<3y<@",
"3<,,7dy33,3<<23<11>c1<311=9=<ct%,011,911,5>>2%yN;71>321,31>,,u7d",
">7<>uu@1y>3,1>139*de*q515991c9,5,55115<,15,111du@37>,7,1112>,du>",
",121d,<<2u3>1317<<n<9=9199=c5%15<55,1271><51>7d$3>2,>13131>ik>>2",
">>2d>y,211y3>,11,dh0*9===3t9%11<8991<,1,,,44$v2,21<222,><8d22232",
"1>d3>2<,1>>71>3<dh%0e51510c%11119<13,0>1*,,:d78122>22>7>3d>>1u>1",
"7sd,<,321>2,>7+0j%5%te=91e=913,e5,<5112<,,:6l#2s<>>13>;d72>1>1,<",
"s,13,32,233>>2hh<311%eh@e9,=51195<,<<<21,12h5>;33>2>6773>13<1>,,",
">,>122>>1>72>kg$,19=9%xee<31119*5>17,1>3>>%g>2,>72>2>1u>,173>>pk",
"3,1>,u>>,,,7g,>913=<11+Ie%=510,,,1,,2,,,2$2q>1>1>i7,>>,7,3>7>7d;",
"<2>13>71,,>h,,1<1<=119<hY*913q1<>,>,2,,>,2k%<1,,>i6>,3123,3>k7;4",
",,27<>27>27u1<1<1=1331e=Jx%99<7<,;>>&2>>7i:2<<>>,6;12,,1,<>d7>31",
">727<,>72>2>71131<51<t<%1R931<<7,,,>>>2>i$;82<22522,2,>,3<,V>,21",
"72>27>21u1>22113<155q<<9@AA+1<1,2>;,>,8g#2,>7,<,7>2,,>>13>f73><,",
"2>,>>73$33>21<11<5,<9<13<,I1<15>>6>:4$g:,,%>211%72>,73>2$kd@23,3",
"2,>3>32,>2,11>3d51139=331%vv+5,>>,>>:h7O22>>>%5,7>21<31,6M>11>s3",
"1,>28>,7,2>,,7w1*113111<11<F1<,,,2:,6s;2>6>>,,,7,>>2<31>l>1>3>q>",
"21>24>,2>63>2g<19<,<111<,1XlF.,<,2>>k->2>2:>>2,82;,,>1$d8>,<3<>7",
">>,5;7,22>21s,119111<51,<<q5J7$,>;>7y@:6;>>>,2>66>>>>0lk$,1,32;7",
"3>72>,>21@yl&,33371<1,3<2we%,T><>-82@2-22;,,>6>522,3l7%83>>>1221",
",u1>>2>,3w77,711<13<>6e7w2$2<kL$>>i@>:2::2;:4,65;2d73,>,s<,,2>71",
",7>,,,>1d8$631,3,<7q7e7,<2,,5OlKXq::;:2>:2222@2i77;>>72*77<1,,3,",
">2>,7>yd2>,27<1,27f7<>,,,4,*,2olJ>;>>,:>;:>:2>;k7>>2<11,17>,,2,>",
"2,2,>kd$<12,772<ds>>1,,,5%,,,>;oDko,:,2-;-2;y>>i;>>23<,1<31,3311",
"72,$ds,,,1,7>2>h7;212>,>&,1226;:2T>-:3:2:>:,>,g8@>>>3,1<>32<221>",
",7>l8;17>2=,,>g7:>,2212,,,&4:2;7$:L >,;2:,6>>#68>,>,1<<1<1w1<,>1",
"<2d46,,22<2>;7w;5*2>>5,>,,>4;48::$zK;;;;;>6:,$7s>2<>33,<3127,3,2",
"yl2$52,>2,>2,k,,22:,2>>,,6>:7i:>,,+lB+2;;$:,>5;83>,2,3*3d1<,337%",
"N>>1,2,>>71>q222>22>2;>2>>;87;2>&$;#zzO;;>:;,>$4i>>11701,1,<1,<8",
":2<22,4>,2>2z>,2,*56>;>>;7i8#>;;:>&,OByO,;;,>;>$y3;,7w>,<,,1*2gw",
";8321>>2>>4d:y>2,,6;;>;>88;:>::;,;:;;#F6->:2>:,,7u>3>7,,2>,>5g2$",
",>2>,5>21$pp%21172:,>$2k6;:>6;::;>;;;O6I$>>>4::,@7d>,72,,%>w7:>1",
"1<2>12>2>wi>,>25>;5%27i>;,>::,#,;;>#-;4gb#>;:>:>;7u>,2<><www$>2,",
">>23>2,,l71*&,4,>,>,w7->>;:;;:&$:;;:#8> Z8$:$;:>32:i,>12w8>>8>>,",
"32>2>>7w5%,2,,2>>>>g:$::,;;,$#:$;$;;47;$-I,:,;>&2,;6,>7s7@3125,,",
">2>>,dh<,5,<2<,>>>g:;>,:::#4;#--&-;40O::+6T&:>:,>;;6,1y@>3,3,212",
",>>dBq%31<1%12>;4g:,>;:4:##46#:$;;:w;;-;:XzI+;,>,>>;l7>>23>2<>2>",
";;zl%>3<1,><>7,i76:,;>>-7#4;:4$#$$4#;>;;;;OZh$5$2>>;s>2111>35>>7",
"7f2;11,3=,2,7d2;$:7$>:>;#e;##&4#$:##-#;;$:&OU5$,>;;d>22,1,,,,,>,",
"v,<,1<,7<22h:,>;:::;:$;;;5,$$#84;:#:-#-:&&>+kZ+*47e7@>,1,>,,13#i",
"$23,11<>55d,:>,>>$,:$>$$2O2$$4$$8$$:-$;;&,,$&F2>e>-7>>,,,>1,1,fn"
};
