/* XPM */
static char *result[] = {
/* columns rows colors chars-per-pixel */
"64 64 131 2 ",
"   c #816639",
".  c #7F6438",
"X  c #785E34",
"o  c #6B542E",
"O  c #735A32",
"+  c #755C33",
"@  c #7C6236",
"#  c #83673A",
"$  c #886B3C",
"%  c #8A6D3D",
"&  c #886C3C",
"*  c #876B3C",
"=  c #85693B",
"-  c #765D33",
";  c #795F35",
":  c #7A6035",
">  c #735B32",
",  c #6F5730",
"<  c #826639",
"1  c #876A3C",
"2  c #8B6E3E",
"3  c #8C6F3E",
"4  c #896C3D",
"5  c #806538",
"6  c #967743",
"7  c #977844",
"8  c #977743",
"9  c #937542",
"0  c #8E703F",
"q  c #866A3B",
"w  c #826739",
"e  c #775E34",
"r  c #7B6136",
"t  c #7D6337",
"y  c #796035",
"u  c #775D34",
"i  c #725931",
"p  c #7E6337",
"a  c #6F5830",
"s  c #6D552F",
"d  c #84693A",
"f  c #84683A",
"g  c #7C6136",
"h  c #6D562F",
"j  c #8C6E3E",
"k  c #977744",
"l  c #8D6F3F",
"z  c #725A31",
"x  c #7F6538",
"c  c #7E6437",
"v  c #705830",
"b  c #745B32",
"n  c #785F34",
"m  c #715931",
"M  c #7C6237",
"N  c #83683A",
"B  c #896D3D",
"V  c #896C3C",
"C  c #7D6237",
"Z  c #6E562F",
"A  c #8D703F",
"S  c #806539",
"D  c #987844",
"F  c #947542",
"G  c #917341",
"H  c #6C552E",
"J  c #876A3B",
"K  c #745C32",
"L  c #8E713F",
"P  c #957643",
"I  c #907240",
"U  c #7D6236",
"Y  c #765D34",
"T  c #8D6F3E",
"R  c #8F7140",
"E  c #927341",
"W  c #947642",
"Q  c #816539",
"!  c #957642",
"~  c #7F6437",
"^  c #927441",
"/  c #6C542E",
"(  c #725A32",
")  c #8F713F",
"_  c #937442",
"`  c #937441",
"'  c #82673A",
"]  c #7A6136",
"[  c #7E6438",
"{  c #917240",
"}  c #8B6E3D",
"|  c #816538",
" . c #745C33",
".. c #705831",
"X. c #6E572F",
"o. c #785F35",
"O. c #67512C",
"+. c #634E2A",
"@. c #654F2B",
"#. c #6A532D",
"$. c #715831",
"%. c #66502B",
"&. c #6E5730",
"*. c #68522C",
"=. c #6C552F",
"-. c #69532D",
";. c #86693B",
":. c #6A532E",
">. c #85693A",
",. c #7A6036",
"<. c #987944",
"1. c #9D7C47",
"2. c #9C7B46",
"3. c #997944",
"4. c #967643",
"5. c #917340",
"6. c #836739",
"7. c #8B6D3D",
"8. c #6A542E",
"9. c #765C33",
"0. c #644E2A",
"q. c #69522D",
"w. c #68522D",
"e. c #614C29",
"r. c #67502C",
"t. c #634D2A",
"y. c #604B29",
"u. c #68512C",
"i. c #66502C",
"p. c #755D33",
"a. c white",
/* pixels */
"    . X o O O + @   # @ $ % % & * = # - ; @ @ : X > , > < 1 % 2 3 3 4 5 % 6 7 8 9 0 q w e r t y u e e e i t . p . . 5 t a > y @ ",
"  5 . X s O i - @   d t & % 4 $ $ d f e ; @ g g ; > h O w 4 3 j 3 2 q . 4 7 k 6 9 l q d y g p : - e ; e z p x   5 5 c @ v b : . ",
"5   5 n s m i X M   N p % 2 B $ V q q : C c t t : + Z O N 4 A l 0 l & S V D D F G 2 * q r t p ; - b y ; i C 5 5 5   5 p m + ; c ",
"  5 p n H O O X c w # p % 3 % B B * J : @ . c p : u m K f $ 3 L L j 2   q P D F I j 1 N y U p r u Y : : O c 5 5 f N < . i + : . ",
"< 5 t X s b b y 5 # f c 2 3 T 3 % $ * : @ p c . y - v - = $ l R I 2 & . = 9 6 P E 3 $ N : r . C ; y : n O . # f f f w p i - : 5 ",
"  S p X o z > y . = q 5 l A A l 4 * 1 r p . p : ; + m e q 2 0 I G 3 & c q W P F G A B = : C 5 C : ; : X m p   # < # N . z u r . ",
"5 < Q ; H m m ; 5 d f 5 R 0 0 A B J = : p . p @ : + m - * 2 A I G 0 $ p q F ! P E 2 q f ; @ . t ; X : : z c 5 # w N # 5 z e g . ",
"    < : o m i ; 5 = = p 3 3 3 3 2 % & : C 5 5 ~ r u i - q T R G E T V 5 f G ! P ^ l * f y t 5 p ; n g r b . # w # = w . b e g x ",
"5   5 r / v b y x = q < 0 0 L R l % 4 r t . 5 . r n m - q T I E E 0 4 . d G ! P ^ A 1 = g .   p : : r r b 5 # f N f N 5 > e r . ",
"  w   : h ( - : . f q # A G G ) j B * @ p . p . @ ; O e * j R ^ G 0 V c f G _ F ` A * = r 5   t : y : r + Q N = = = f   > e r . ",
"' f w r h b - ] 5 = q # 0 I I R 3 2 & g [ 5 . p @ ; b X & j { 9 ^ ) 4 . = ^ _ _ I } 1 = r 5 < c ; n g ] +   w f q q f 5 b e y . ",
"|   5 r s v v + r 5     0 R R 0 3 4 $ : -  .b O ..X.o + f B R ^ ^ 0 % 5 w 0 G G 0 % * = y c   r o.g @ y b c   f = f f 5 O - ; C ",
"Y + z , O.+.@.#.a b u r   = * * q * = e ..$.z ( > v Z , + g 5 w N 5 C r ] 5 N = f 5 g g - Y + + e X e b m r t . 5 5 c : m z m b ",
", v X.o %.H v z Y ; r e ; - e n X y Y + p c w f w p : v Y g p p t r u b : p 5 c r - i , , , , z O b b O v , , m O m &.Z s *.O.=.",
"> +  .v -.X @ @ p . C + p . C n ; + a : # = $ % & q 5 z p f f N d < . X 5 f q q < p r X &.- @ p 5 <   5 - > O K - - > + s #.s m ",
"m z b m h @   < w # 5 e   5 t t C C u p q & 2 T 3 % f + < $ $ * =   # M q 4 $ ;.  c : - Z : .   = = N d X : p t p p r : o :.X.v ",
"O b + b $.. q $ 4 4 >.t = w . g : p ; 5 % l R ) 0 3 q X = 3 A 2 2 q q 5 3 I l 4 f 5 r X , :   f = = = = n c     <   C r &.&.i b ",
"- ; n X O 5 % 3 0 R &   4 =   . C p r . 2 L E ` { L $ n & L G G 0 $ & N I F { A & # . r m @   # q q q q ,.w 1 J = = < p m m + - ",
"X : r : K # l l R F 2 q A $ N w p . @ 5 3 R E _ G R $ : 2 G ! P L % j q P <.F G } f 5 p + @ 5 5 f 1 * q M f % & q * =   O m - o.",
"y r C C u # A I F 7 A & R B ;.=   p : c 2 3 I ^ G L * r 2 G 6 6 I 2 A J D 1.6 ^ j = 5 5 + @ 5 x < f = * p f % 4 B B = . z > - y ",
": r C t y # 0 G F D L % I % q d # 5 : C $ 2 R R A 3 f : % G 6 6 G % 0 * 6 2.6 G j = 5 5 - g p x 5 N = q t d % % % 4 q 5 a b e n ",
": r p p : w R G F 6 A 3 I % * = N   ; : q 2 A A % 4 5 e % R ! 9 I 2 2 = ^ <.F ) % = 5 p + r p 5 5 < f = C N 4 % 4 & = < ..b n ; ",
"r t . t ;   R ^ P P 2 % R B * = w 5 ; : $ % 3 j 2 4 5 y 4 ) F _ I 2 3 q G <.F A 4 q . @ b r c 5     f q p N 4 V % 4 f < v z ; y ",
"@ p c t ; < I ^ W P % $ A 4 = = < p n r $ B 3 A % & 5 y % l F F ^ 2 j & 9 3._ l B q x @ > r p 5     w = t = B 4 2 & = < $.i : r ",
"@ p t p : w 0 I _ F % * 3 B = f w . e : q % l R 2 $   o.2 L F 4.G 2 2 * F <.^ R 2 = p : b @ . 5 w # w = p q 4 % 2 4 = < m O @ C ",
"r t p p :   A { _ W % $ l & * = < . e : q % j 3 3 $ . e 2 { 6 F I % % q F 7 ^ L *   @ g b g p x   w f = @ = B 2 % V = < m z g g ",
"r C t C y   0 ^ E ` B $ A $ q N   p e : q % j l j 4 5 ; 2 E P ^ I * $ q ! 6 I % q < c t K g t .       f : f % 2 B * =   i i : @ ",
"r t t C ;   T I E _ 4 * 0 $ ;.w 5 . n : = & 3 A 2 % N : 2 I F _ 0 * B q ` P G 2 * f . @ b @ x . 5 5 # f : q % % B q w . m z X : ",
"r p t @ - c j L G _ % q l $ = < . c ; g = 4 0 0 3 % # y } 5.F P R & 3 q I 6 ` A V N . C + g . p . 5 # f : >.% & 4 J   . m b ; e ",
"@ @ @ @ + . 3 A I G 4 q 3 q f # 5 p ; C = B A 0 3 2 w n 2 G F F R V 2 ;.I F G j * < c C b : t t p 5 # f n # 4 B 4 * # r , b ; : ",
"@ r r g - . 2 A L R $ >.j * d   . t n r f & A 0 l %   ; % E F 9 I B 2 = { W I j * w C @ b : t t p . < N e N 4 & & q # @ a b n y ",
"r g @ @ - @ 4 3 R ) = N T * N 5 t t n @ 1 B l ) 0 }   ; & I F 9 E % % = I F R 3 4 6.@ r ( : C t x 5   w ; N & $ & q w . v O ; : ",
"@ C C t - r * j 0 I q f 2 q # p @ @ n : q % 3 ) 3 4   r 2 R _ _ I % B f I F R 2 $ N C r m n @ t c . <   : w q q 1 =   5 m z e : ",
"g r t t - r $ % l L q f V f N . r r e r * & 3 3 B q . : 2 L _ F A & 4 # A ^ 0 2 $ f p r m n r r p . 5 w : # q q q f Q . m O y r ",
": @ p r  .r * 4 % 0 = < 4 # w 5 @ : - r = $ % 2 4 = c X V 0 E _ R 4 4 f 0 G 0 2 q # p : m ; g r g . 5 < ; ' q q = = < x a > y ; ",
"r @ r r  .r & % 4 % ' x 4 # 5 5 r r e r = $ % j 4 * [ - % l I I A * *   2 G A % q   @ ; ..; g r r @ .   : w N # = = N p h z n ; ",
"r r C @ O r $ % % 4 w p 4 f 5 t r r X C q & % 3 2 %   n $ A I I 0 * * < 4 0 2 4 >.5 C : m : r r @ t 5 5 ; < w f N w   t h m - ; ",
"r @ @ : z : J 4 4 4 w t q N 5 t r r e C ;.4 7.2 % 4   ; & A I I A 1 * 5 V ) j $ = 5 r ; m ; r ; r C . . Y < = f f   5 t h i ; ; ",
"g @ @ @ z e ;.$ $ *   t N 5 p : X : u g q $ % % % $ Q X 4 l G R 2 q q 5 4 L } q N 5 ; - v n n ; g t t c - 5 f f < 5 . @ Z ..o.: ",
"r r @ t m e = = $ *   C f 5 t : n ; + ; = 1 4 % B $ 5 e $ 0 E G 3 $ $ Q 4 0 % q w . e + , u ; o.r C C t -   f # <   p g Z i o.: ",
"; : : : v u f * * * . r N . t r - ; + : N q & 4 $ q c X $ l I I 0 * 1 Q $ 3 7.$ = c ; n , e : ; r t C C b . w # f # x r s $.n ; ",
": r r y v - = = q q C : w p r : - : + : f * $ 4 B 1 . X * l R 0 3 * = 5 % 3 B $ # c : n , X r r @ C t p b C     w w 5 @ s , u ; ",
"g r r r m + w N = q t r < @ r X e y + ,.d 1 1 B 4 q p e * A 0 A 3 = = . $ 0 2 * w . : X , e : @ @ C C @ b .   5   [ . @ s , e r ",
": r r @ m +   w = * ~ : x @ : n Y : - @ = q $ 2 2 1 . n & 3 0 0 l 1 q . * 3 3 q w . : n a - @ t t . . @ > t   5 . p . @ h ..; r ",
": r ; g , Y 5 w = q t + c t ,.: e y + t q $ % 3 3 % Q n $ % L I 2 $ q . * l 2 = < p : ; v e c . .     . b @ 5   p p t @ Z v ; ; ",
"e : ; r , u c   f f @ + . t r ; X r - p q $ % 2 3 % w X q % 0 L % q q . $ 3 & f . g : X , ; 5   . < N   + r c . . p @ g h a - - ",
"- ; y : s + t c . 5 : i r y X - - r - . q & 3 3 % & 6.u f & 2 l 4 f = p = B =   . @ X K Z ; 5     N f 5 + @ p @ @ C @ r Z v b > ",
"b - u - 8.i : r r r e Z - - b i O ; - x = q 4 2 B q   b 5 = $ 4 q <   r   q f   @ ; + O h X . 5 w w =   - @ r r r : : : H , i m ",
"&.v > m O.v 9.e e e - h b z v v z + O p w < = q * f @ v g   f f f . C - p   5 < 5 g o.u Z X p   # < f < u @ n n ; n u u #.o X.h ",
", v v h 0.h i > > z z q.m m v , h s h : . 5     < 5 y h e . <   5 @ r > r N     . ; e  .H + @ p . 5   c + ; b O b K b O O.q.H s ",
"#.o H w.e.0.O.*.O.w.#.-.=.q.#.#.-.-.-.b r p . C C t : o O ; y ; ; - > O u g r r y + b m H H v ..i  .9.> , h w.r.*.w.O.O.t.y.t.u.",
"s s =.%.e.@.i.O.%.u.o h m O + Y u - z -.Z $.m m O b m w.#.Z z K b O z + . # q 4 * # . . - H h v i i > z Z &.h Z h h s #.@.O.:.H ",
"y y o., %.m z O > - y z r . . p t : X H w.q.#.#.8.#.@.H - : t 5 . 5 | : * I ` R l % N # ; > e e n n ] X Z + u n ; : ; K q., ( e ",
": @ @ z O.b - + - : C > r c . p p @ : ..O > b b m h w.v c   < < # = f @ * R ^ G ) 2 1 f u m e b + - e O o - X ; ; ; y - :.m b ; ",
"@ @ : > #.+ u + + y @ K t 5 . p p p r v b + - + ( Z #., .   w # = = 6.c B G G G ) 2 $ N - > y + - - 9.z o  .n ; ; ; : e o m - : ",
"@ @ @ + o b  .b - : C - p 5 . 5 . C t ..( + + K m h #., . N N # f = # t 4 G ^ ^ R % 1 f e z n - - + - > o + n : : : ; + :...- : ",
"@ t C + o O b b p.: @ + . w < w 5 c t m ( + + + O v :.m 5 # N N = = N p B E ^ 9 E 3 = f n > ; - - + + > / X : g : r y + o m e r ",
"r p @ + -.v O b Y r @ +   #   w 5 . t m K - - -  .m o v x N f = = q = @ 4 F _ P G 3 * f X - r - - e - O h n : r : : @ X H i - ; ",
"; c p + *.m m O e g @ > c N f w Q 5 p i - e - - O , / m 5 f f * & $ d t 4 P F 4.L % 4 w e e r e - u u > h X : r @ : : n H ( e ; ",
"C @ @ > #.b ( O n C @ b . f = # 5   . m e e - e > v H i 5 f = * 4 $ = . % P F 6 ^ T $ # e - r n - - e > s X ; r c @ : X s z - g ",
"C p t K :.O O b : t . X w f f # w   . ( - n X X b m h v . q * $ 2 4 q x % ! ^ P _ A & d u u @ - - e e b Z ; r C c p M : Z ( - : ",
"p 5 . - o ( i K : p | r = q = # N N x b - ; ; X - i h m   1 * 4 2 & d p $ ^ F 6 G 3 4 q e e t e + X e b , r p c C C t r Z z e r ",
"@ . c u o m i + r . w r = * 1 1 = f w + e n n n e O Z O w 1 $ 4 2 B = p $ F 8 F { A 4 q e e g e - e ; + , : C C p c c r , O n r ",
"5 Q . e H > z + g 5 w r f $ 4 $ q = # + ; r g : e b Z O w $ % % 2 V q   % P 6 P ^ l $ f o.: p n Y X X u v r C .   5 5 @ v b n t "
};
