/* XPM */
static char *_b91be162340444985d507418a9a516byrVd6EUEgi45HJaG[] = {
/* columns rows colors chars-per-pixel */
"64 64 54 1 ",
"  c #221E1B",
". c #26221E",
"X c #28241F",
"o c #2B2622",
"O c #2E2924",
"+ c #312C27",
"@ c #332E29",
"# c #36312B",
"$ c #3A342E",
"% c #3C3631",
"& c #3E3932",
"* c #433C35",
"= c #463F38",
"- c #474037",
"; c #484137",
": c #474039",
"> c #4C443C",
", c #4F483E",
"< c #50473E",
"1 c #51493F",
"2 c #4E4740",
"3 c #4F4840",
"4 c #504740",
"5 c #544C43",
"6 c #584F46",
"7 c #574F48",
"8 c #584F48",
"9 c #575046",
"0 c #595147",
"q c #575048",
"w c #5C544A",
"e c #5F584D",
"r c #5F5850",
"t c #60574C",
"y c #61594E",
"u c #645C51",
"i c #685F53",
"p c #6A6156",
"a c #6D6459",
"s c #70675B",
"d c #736A5D",
"f c #766D61",
"g c #796F63",
"h c #7C7265",
"j c #7E7469",
"k c #807567",
"l c #817769",
"z c #847A6C",
"x c #887D6F",
"c c #867C70",
"v c #897E71",
"b c #8B8174",
"n c #8F8478",
"m c #928779",
/* pixels */
"@@%==2=22222222=:=&%#@O#:3qq777rriur872=*oo@*2277q757777422==&&$",
"#%rjccjjjjbbcccjgffar*@&rfjjjjfjjjffaafjr@o=fclclgffgghgffiiiffa",
"&%wfffsasapprarruuuua3@%rrrryyryrr8rrraju$o4jchfaiyerwryyrrrriia",
"&%wrrwwqr777r77rqwwwr3@#qqrq877777788rriw$o4gjgsaurw547wrr8w777r",
"&&rrrw88qqqq7727599wp3@#qreq5345444577wr1#o<kddsptw5>=2578877777",
"$&urwww8qq0q727359wwr,@$qrewq5425544778w<#o<ppssi84>:==257777777",
"#&rrww7qqqqqqq3759eeu,+#wrerw7554755588w1#o>uippu84>==>=2237378w",
"@=rrrq88913335335weeu:+$qrqewq755585588y1+o*uyttwq84=>>2>235778r",
"+-yeeewe1,,;,111wyyue;+$5y0tt006758566wt=@o*ttttwtyy5,,1225778wr",
"+*eeeew11>;;;11yepuuw&O%4ytttttt8888wttt=@o*tyttyyip1;1075888wer",
"+$9ieww11,,,11yyyyyt,$O$4wiyttttttyyytu6*#o*1yttyyy0wwyyytrweww8",
"++-ee91111111111545,-#X#==<<=*====<==<<===@*<tttttw>wy017442>=>=",
"##%:-*&%&-&&-$$$%%*%*+o+**#@++#+@#@#*@***=+#***;;;*$#*$#@@@+@#%%",
"saaau1*++#$$*-,16tw8566544<=$+*<65666======*****+++##*-;15wuafff",
"fhjckhy-#1uadhllkggggzzxvxxkt$0dkkkzzzkkkkkdasy1*#>ypskhhgghlvcj",
"wwwrypy>$1afdapyt8558tisfddst*1pisssspiiippapai1*#1iiyyyewwweeee",
"w75qqrr3@4iy0511<,>110yappyy1*1tyyiyyyyt991900e0*+;1e09991119000",
"73275qu3#2uw54544<<>140yyiit>*1tyyyyyyiy0011990e*O;0009111111100",
"q3235qrq@>e6<506541<>150tttt>*<t00t000tye091100e-O;1009911111190",
"q3725qeq@*ee640q65551<10tt1t>*;1011011000001190e-O-y091111111199",
"q7qqqqrq#%5uw5600010511wtt0t=**611;1;11119111000$O*w010111111100",
"wwwwweeq#$=qyw99tt015660ttt1=**5011;111110011000$O-1yw109910ee0e",
"35>>,3q5#$*,90wwt100000000t<=*%<0000000000001011$+&1e10199101,,1",
"$#@##$%%O$*&**::<1>>;>>;;>;***%*111;1;111;;;----#O#*----**&$$##$",
"@Ooo.oo. .@@#@+++@+@+X++++@$$@**$$$$++++@+OO+#$$+&&##++++######+",
"q%@&27r772$2rpapiy0<&++++@@@@o+$$++++*;0e1$X#ehd9hgdspuyuiadffda",
"a&%qdffdaa7rjjjjhdp1;&,yddspa85wtt01pkkkfd>O&pdpuddkkkbkzzzzzlgf",
"r&&qfairrrr2ussaaiit-&1jkhdddsaipsssspyteu1+-eeweeyyyyeeeeeeeeee",
"r&%7aiirrrreqwyeyiy1;-1syyuypyeweyyu010t0y1+;y00eeyyy000e90eeeee",
"r&#7uuurrrwqww590ty0-$0iyyyppeeeee11111tee1+,0eeeeyye0ee09e0eeee",
"q&$7uurrrwq77qw600ey-#1iyyyyewqq1111110t0e1+-1ieeyyye00weeeeewew",
"w&$2rruuqq75559q0ee1&#0ywwwwqq0411111101ey1O#9y0yiyyeeeeeeew99ee",
"w*$,y0yit0011000ttt1##6tt888661<1111919eey1+&ye0yiyyyyyyyyy010tt",
"q&&3yyyyi0011110tty;#*0t6666<61<,,1110we0y9#;y0eyiiyyiyyy00110tt",
"9&-wyiuuyyt0t00tty0;#*0t61555<1<>>,100eeey1&-9e0yiiiyyyy011110tt",
"5*-yuyy1yyyyiiyyii0<**0t1655561<,110w0e0yy1$$;eeyyyiiyy0011;90ee",
"4%%41;;-;;1111;11111+=t0tt00t66<111111110e1$-;191111111;--$#;199",
"*%$$$+++++###++#**;;X*1<*;;>=***%%%@$$$**-&#*1;$$$++++++++OX+$$&",
"256q1;;$#+OO$&&$++#$*$$++O++OOOO#$$@$$#@#*1111;-;$&$;;11-OO&;,1,",
"ghllbhppt1;1pdd0*+;pdp<<utttttuiaaaaiy>#,idgbbbbbbbbbbbgu$$dkbbk",
"aaddaiyiipipdddi;+<iditkzkkkkkkkghfddp;+1ypddddghdjzljgsy-&ahhfs",
"yuuyyyttyyttisdy;+;t01tyuttttt0611111t-+1weee0190ewwyyyye-$esaue",
"etyuyttt0000typi*o<t01t0t001<66611111y-#1eyee1,,,19900eyu-$ufsue",
"w8wuytt000100tiy*X;1><0ttt01<660y11111$+1yyw11;,>,,910wee-%espe0",
"w90tttw0001100tt*o$<1100ttt6119wye111t*O1yy01,;;>>,,99qey:$wi99e",
"0011660t0110000t;o$0t0101t01111w0ey111$O;yi11111>>,,19weu:$ee999",
"0w00000yi00000t0;o*10061100w911110e111#X-yie91011119990eu>$9yq99",
"wwwwwtttyy000tt;&+$<666;,11119910e01e,+X-1yt000ee900qweee,$3pwqe",
"wew0www0twt1t11%$@$*********--,,11111*+O%,11t1111111,11011$1uq9w",
";>;********--*$++o@$#@+oXo++@#$&;;;;*&@O#-;-;;;*-*&---,;>,#&-*&-",
"@##@OoOoXOO#$&--*;><>******@#@+#&&$$#$++++###++###$#$$$$$@+##OO+",
"2=%#@+$2ypsdgllkxxxbbxxzkkkp0%+*igdy11t1e111y1*+#-eiaddpyeypsapu",
"bchaw%*ahhgghhhhhhkzzzllgkks0-+*pbbbbbbbghhblb0+$,sdghjlzzjznmmn",
"fjgfi=%qiy1e1uyyyyyaddayttyi1&O>yyyyipt11uy1yst+#1piiuyippppasss",
"qeetw=$4e1y01eyytw0tyiuw10ty,$X1y0111111;1119w9##0piyeeeeeeuewww",
"qq8e8=@4yt1eeeeytw0tttwwt10y-@@101,1>;1>;1110ww$#wiyyeewwwweqqqq",
"666t8=$4e10wwqwyeeetuetq959e:+#q0111,111>>,4www$#wewwwrw956qq557",
"668t8=@4y00ww08etteetuyewqqe>+#we11111996416wwq$%rw78887332566qq",
"88wt8=@=www0w66qwwwwwettw09e3#$900111000887www9$%wyw8878533578ew",
"88tt4*@*1w00666q8ww68qqeewwe9$#,0000w000888rew1$%wyr887wq9qwwwew",
"8ttw=%@#=5566660www088weewww3$@:0e00wew07wrrq72##7rrr8w88w8rrrew",
"8885*%@#*<4466666866678wqww0:$@%,333111,333222&@@=5qwww788557wwq",
"=*=**%#@*=>=;,::*=**%****=*;&$#$;>--*&&%%$$$$@@o+@%%==2==%$#%>>>",
"%%%$%#@@@%%$%$#@++OOOoOOOOO++O+#%$&##$$$@OOoo+o+oo+++@OOooooO+@@"
};
